<svg id="fefc90b3-bd1e-4cd4-be3d-cdd9e13a2acc" data-name="Слой 1" xmlns="http://www.w3.org/2000/svg" viewBox="0 0 828.78 422.382"><path d="M416.9,425.346A308.213,308.213,0,0,1,302.468,403a724.038,724.038,0,0,1-85.077-40.293,614.289,614.289,0,0,1-86.27-58.341c-14.382-11.567-28.881-22.991-43.757-33.951-13.646-10.054-29.258-12.951-45.413-14.547-5.947-.587-11.932-.849-17.907-1.075A20.072,20.072,0,0,1,5.212,238.068c-1.442-9.983,4.61-19.683,14.206-22.325,8.452-2.328,17.187-3.514,25.4-6.855C58,203.526,68.092,194.222,77.3,183.835c29.625-33.42,60.292-65.861,96.248-92.555,28.927-21.474,59.562-40.241,92.732-54.925C294.389,23.912,323.285,14.288,353.348,8.7c31.839-5.92,64.055-7.04,96.463-4.354,28.789,2.386,57,7.233,83.987,17.5,21.753,8.279,43.221,17.258,63.369,29.281,21.575,12.874,43.414,25.279,63.4,40.594,25.039,19.189,47.63,41.043,69.256,63.945,10.631,11.258,21.43,22.358,32.195,33.488,14.992,15.5,34.056,23.269,54.443,28.454a32.321,32.321,0,0,1,9.14,3.877c6.358,3.941,9.387,10.853,7.737,17.477-1.515,6.079-8.756,12.253-15.211,12.6-9.47.514-18.968.271-28.415,1.538-25.9,3.475-47.082,16.226-66.562,32.825a746.6,746.6,0,0,1-85.665,62.734c-44.094,27.868-90.6,50.584-140.731,65.148A292.655,292.655,0,0,1,416.9,425.346ZM415.25,35.473c-13.684-.033-27.361.372-40.868,2.511-42.043,6.658-82.229,19.409-119.957,39.088a435.648,435.648,0,0,0-77.347,51.865c-22.7,18.908-42.866,40.405-63.461,61.463a214.307,214.307,0,0,0-25.84,31.663c-1.015,1.537-1.807,2.338.149,3.909,6.091,4.892,11.656,10.483,17.98,15.032,18.633,13.4,36.249,28.128,54.8,41.613,22.672,16.478,43.576,35.326,68.418,48.9,23.715,12.964,46.786,26.944,72.461,36.111,24.157,8.625,48.541,16.011,73.809,20.538a250.569,250.569,0,0,0,68.134,2.539c14.763-1.4,29.039-5.093,43.342-8.881a395.444,395.444,0,0,0,77.118-28.8c19.139-9.648,37.109-21.361,55.156-32.844,28.485-18.124,55.219-38.751,81.609-59.753,14.287-11.369,30.725-20,43.008-33.967,2.291-2.605,2.468-4,.341-6.563-11.485-13.83-23.178-27.447-35.48-40.584-23.152-24.722-47.438-48.114-75.244-67.6-24.85-17.415-50.477-33.4-78.316-45.877C510.5,45.875,464.188,34.832,415.25,35.473Z" transform="translate(-5 -2.963)" style="fill:#021e38"/><path d="M415.25,35.473c48.938-.641,95.254,10.4,139.816,30.371,27.839,12.474,53.466,28.462,78.316,45.877,27.806,19.485,52.092,42.877,75.244,67.6,12.3,13.137,24,26.754,35.48,40.584,2.127,2.562,1.95,3.958-.341,6.563-12.283,13.964-28.721,22.6-43.008,33.967-26.39,21-53.124,41.629-81.609,59.753-18.047,11.483-36.017,23.2-55.156,32.844a395.444,395.444,0,0,1-77.118,28.8c-14.3,3.788-28.579,7.485-43.342,8.881a250.569,250.569,0,0,1-68.134-2.539c-25.268-4.527-49.652-11.913-73.809-20.538-25.675-9.167-48.746-23.147-72.461-36.111-24.842-13.579-45.746-32.427-68.418-48.9-18.555-13.485-36.171-28.213-54.8-41.613-6.324-4.549-11.889-10.14-17.98-15.032-1.956-1.571-1.164-2.372-.149-3.909a214.307,214.307,0,0,1,25.84-31.663c20.595-21.058,40.762-42.555,63.461-61.463a435.648,435.648,0,0,1,77.347-51.865c37.728-19.679,77.914-32.43,119.957-39.088C387.889,35.845,401.566,35.44,415.25,35.473ZM266.831,219.313c.177,3.4.036,9.108.843,14.683,3.214,22.205,11.255,42.636,23.219,61.592,17.705,28.05,41.549,49.013,72.718,60.5,23.7,8.731,48.489,12.065,73.737,8.332,29.2-4.318,55.945-14.144,77.7-35.259,14.7-14.267,26.279-30.673,36.2-48.459,16.508-29.595,19.449-61.02,12.954-93.712-5.361-26.978-18.823-49.844-36.762-70.251C506.577,93,481.779,75.509,450.487,67.99a137.525,137.525,0,0,0-71.5,1.369c-26.278,7.587-48.3,21.981-67.31,41.673C283.015,140.722,266.913,175.4,266.831,219.313Zm352.461,6.5v-.229c2.158,0,4.316-.012,6.474,0s4.315.1,6.472.078c1.635-.017,3.253.073,4.765-.961,3.918-2.683,5.668-9.233,3.971-15.4-1.649-5.992-5.637-9.509-11.041-9.565q-9.711-.1-19.423-.018c-11.478.1-17.792,11.7-11.857,21.72,1.735,2.928,4.079,4.576,7.7,4.414C610.657,225.665,614.978,225.813,619.292,225.813Zm-406.168-.159,0,.143c3.983,0,7.967.026,11.95-.013,1.47-.015,2.945.063,4.3-.833,3.622-2.388,6.637-10.4,5.409-15.231-1.3-5.127-4.574-8.109-9.944-9.095-5.767-1.059-11.572-.849-17.359-1.17-9.706-.538-13.013,1.953-15.37,11.28-2.181,8.63,3.3,15.621,12.055,15.344C207.157,225.984,210.14,225.8,213.124,225.654Zm-8.31-62.382c-1,2.863,2.209,4.111,5.18,5.314,7.966,3.225,16.028,6.218,23.959,9.525,2.479,1.034,3.993.323,5.686-1.367,4-3.99,4.946-9.227,6.23-14.368,1.081-4.327-.208-7.138-4.4-9.17-8.016-3.886-16.628-6.43-24.339-10.988-1.682-.994-3.407-1.132-4.735.863C208.6,148.787,205.663,154.813,204.814,163.272Zm422.393-2.966a37.694,37.694,0,0,0-9.01-17.33,2.917,2.917,0,0,0-3.629-.624c-8.481,4.062-17.233,7.59-25.151,12.75-2.463,1.606-3.337,3.786-2.481,6.853a54.977,54.977,0,0,0,5.946,13.613c1.715,2.853,4.031,3.825,7.147,2.459,7.558-3.314,15.168-6.517,22.623-10.048C625.193,166.776,627.312,164.713,627.207,160.306Zm-8.126,121.707c2.5.211,3.748-1.031,4.878-2.571a37.692,37.692,0,0,0,5.293-11.664c1.142-3.751-.123-6.261-3.267-7.833-5.133-2.565-10.375-4.93-15.65-7.194-14.827-6.362-14.982-6.271-20.587,9.118-.392,1.074-.467,2.259-.781,3.367a3.639,3.639,0,0,0,1.626,4.284C599.279,275.88,609.211,279.354,619.081,282.013ZM203.92,264.693a31.6,31.6,0,0,0,4.932,14.063c1.61,2.331,3.783,4.084,6.739,2.811,8.647-3.723,17.408-7.226,25.579-11.961a5.056,5.056,0,0,0,2.692-5.877c-.924-3.859-1.866-7.76-3.828-11.229-1.721-3.043-4.216-5.43-8.107-4.009-8.034,2.932-16,6.06-23.973,9.152C205.177,258.72,203.8,260.811,203.92,264.693ZM597.173,115.746c.094-5.318-10.116-17.306-15.439-18.247a5.393,5.393,0,0,0-4.515,1.526c-3.1,2.487-6.181,4.988-9.2,7.565-8.669,7.4-9.062,11.481-1.992,20.567,1.423,1.829,2.973,3.561,4.486,5.319,1.84,2.139,3.789,2.767,6.536,1.247a95.406,95.406,0,0,0,16.321-11.256C595.376,120.731,597.1,118.663,597.173,115.746Zm-325.022,1.139c-.067-1.863-.195-3.163-1.107-4.265a60.269,60.269,0,0,0-16.566-14.108c-1.9-1.087-3.066-.233-4.473.714-5.158,3.47-7.579,9.088-11.074,13.877-2.454,3.362-1.789,6.061.959,8.736a80.454,80.454,0,0,0,16.946,12.071c1.19.672,2.6,1.408,3.719.472A34.567,34.567,0,0,0,272.151,116.885ZM582.359,322.632c6.365.108,10.242-3.3,14.84-11.448,2.369-4.2,1.472-7.219-1.408-10.255-4.514-4.759-10.283-7.8-15.733-11.271-2.526-1.608-4.49-.776-5.84,1.586-2.962,5.184-5.808,10.434-8.69,15.664a4.271,4.271,0,0,0-.157,3.826C566.965,314.829,577.93,322.557,582.359,322.632Zm-330.063.479c6.56-1.519,10.552-6.925,14.611-12.1,2.828-3.6-.552-6.457-1.862-9.428-1.394-3.162-3.137-6.176-4.8-9.215-1.689-3.085-4.241-3.744-7.577-2.857a20.087,20.087,0,0,0-6.093,3.142c-13.583,9.192-14.086,14.789-2.536,26.479A12.356,12.356,0,0,0,252.3,323.111Z" transform="translate(-5 -2.963)" style="fill:#fdfdfd"/><path d="M269.1,219.313c.082-43.912,16.184-78.591,44.847-108.281,19.011-19.692,41.032-34.086,67.31-41.673a137.525,137.525,0,0,1,71.5-1.369c31.291,7.519,56.09,25.008,76.958,48.746,17.938,20.407,31.4,43.273,36.761,70.251,6.5,32.692,3.554,64.117-12.953,93.712-9.921,17.786-21.5,34.192-36.2,48.459-21.76,21.115-48.5,30.941-77.7,35.259-25.247,3.733-50.037.4-73.736-8.332-31.169-11.484-55.013-32.447-72.718-60.5-11.965-18.956-20-39.387-23.219-61.592C269.138,228.421,269.279,222.709,269.1,219.313Zm152.664,69.868c37.912-1.176,70.114-29,71.477-68.74,1.437-41.914-33.3-76.1-71.961-76.494-39.5-.4-74.329,31.65-74.5,70.4C346.608,253.736,374.954,288.082,421.766,289.181ZM318.6,205.808c1.653.387,3.807.1,4.483-3.872,2.536-14.9,9.838-27.766,18.024-40.134,2-3.027,1.59-4.366-1.293-6.059-5.364-3.15-10.281-6.7-13.17-12.662-1.79-3.7-4.366-3.511-6.647-.027-11,16.805-19.975,34.493-23.958,54.413-1.587,7.937-1.76,7.789,6.121,6.323,2.54-.472,5.651-.688,7.813.376C312.415,205.37,314.747,205.225,318.6,205.808Zm-21.634,23.9c-1.593-.27-2.023.452-1.68,1.954.294,1.29.408,2.621.616,3.932,1.83,11.487,6.729,21.916,11.545,32.308a162.4,162.4,0,0,0,13.7,23.7c2.529,3.676,3.761,3.52,5.894-.149a58.618,58.618,0,0,1,6.726-9.48c2.1-2.36,6.773-2.04,7.7-5.441,1.029-3.8-3.575-4.945-5.034-7.559-6.223-11.153-11.384-22.788-13.321-35.571-.419-2.762-1.713-4.345-4.589-3.983C311.336,230.322,304.17,231.53,296.963,229.71Zm246.214-23.351a88.182,88.182,0,0,0-5.555-25.144,183.25,183.25,0,0,0-20.314-37.563c-2.2-3.2-3.721-3.069-5.337.271a23.017,23.017,0,0,1-6.941,8.277c-7.25,5.516-8.025,6.471-2.328,13.2,9.219,10.88,11.942,23.758,13.484,37.166.359,3.117,1.571,3.288,4.109,3.095C527.721,205.091,535.165,204.741,543.177,206.359Zm-.65,25.719c.634-3.079-.8-3.96-3.58-3.039-5.441,1.8-11.049,1.937-16.662,1.578-3.155-.2-4.876.767-5.579,4-3.2,14.7-7.943,28.8-16.6,41.315-.978,1.416-1.277,2.9.511,3.8,4.82,2.4,7.592,6.8,10.927,10.7,2.948,3.449,4.819,3.176,7.24-.737q3.8-6.144,7.374-12.426C534.184,263.149,540.481,248.4,542.527,232.078ZM375.55,325.83c-3.067-.064-5.821-1.211-8.594-2.372-3.124-1.308-5.566-3.024-4.61-6.929a24.187,24.187,0,0,1,6.178-10.553c2.564-2.787,2.623-5.038-.908-7.2a50.792,50.792,0,0,1-7.951-5.981c-2.434-2.254-4.673-1.685-5.591.753-2.252,5.982-7.048,9.577-11.6,13.343-3.712,3.072-2.411,5,.507,7.455a117.154,117.154,0,0,0,22.151,14.262c13.152,6.759,27.268,10.272,41.715,12.726,2.885.49,5.207.114,3.887-3.791-2.471-7.306-1.829-14.81-1.127-22.237.275-2.912-.654-3.446-3.1-3.49a85.179,85.179,0,0,1-11.919-.587c-7.1-1.14-7.067-1.343-9.323,5.745C383.8,321.591,379.173,325.809,375.55,325.83Zm57.317.119h-.294c-.121,2.657-.182,5.318-.374,7.97-.475,6.564.442,7.249,6.691,6.373,20.914-2.934,38.953-12.52,56.178-24a30.95,30.95,0,0,0,5.889-5.3c1.127-1.277,2.253-2.864-.949-3.784-6.5-1.869-10.835-6.679-13.567-12.526-2.315-4.955-4.173-4.659-7.129-.813-2.225,2.894-7.376,2.956-8.293,6.524-1.025,3.987,3.8,6.067,5.229,9.566,3.649,8.934.078,14.853-9.478,14.786-5.578-.039-8.462-3.827-10.8-8.312-1.288-2.469-.647-6.675-3.07-7.364-2.45-.7-5.625,1.27-8.51,1.954-3.826.907-9.422.491-11.067,2.859C431.385,316.66,432.867,321.819,432.867,325.949Zm34.26-224.074c-6.221-4.485-25.362-10.581-31.567-10.29-.164.008-.33-.028-.5-.026-1.181.016-1.311.554-1.614,1.752-1.865,7.373-.341,14.928-1.459,22.317-.406,2.686-.176,5.4,3.127,5.577,4.693.253,9.117,1.68,13.689,2.415,2.672.43,4.131.088,4.933-3.037A29.923,29.923,0,0,1,467.127,101.875ZM409.35,93.1c-.344-1.266.788-3.836-2.277-2.993-8.477,2.334-16.956,4.675-25.368,7.23-5.423,1.648-6.108,3.846-2.486,8.08,4.191,4.9,7.62,10.137,8.552,16.621.394,2.731,1.891,2.13,3.528,1.656a73.4,73.4,0,0,1,15.621-3.127c1.893-.123,2.733-.891,2.46-2.814C408.214,109.568,407.829,101.377,409.35,93.1Zm-46.819,12.849c-8.354,3.785-14.58,9.108-20.912,14.2-1.51,1.213-2.787,3.658-.007,5.376,4.754,2.937,8.093,7.264,11.507,11.517,4.582,5.711,5.336,5.893,11.385,1.67,2.438-1.7,4.664-3.708,6.994-5.565,1.5-1.2,2.054-2.13.3-3.884C365.577,123.047,360.431,116.245,362.531,105.952Zm119.018,34.314a9.7,9.7,0,0,0,3.391-2.685c3.77-3.817,6.2-9.374,11.108-11.49,4.384-1.888,2.873-3.527.906-5.259a99.281,99.281,0,0,0-15.635-11.408c-.948-.551-2.482-1.427-2.731.418-.993,7.331-5.931,12.455-9.772,18.206-1.082,1.621-1.759,3.688-.2,5.043A35.557,35.557,0,0,0,481.549,140.266Z" transform="translate(-5 -2.963)" style="fill:#021e38"/><path d="M618.824,225.813c-4.314,0-8.635-.148-12.941.045-3.619.162-5.963-1.486-7.7-4.414-5.935-10.019.379-21.622,11.857-21.72q9.711-.084,19.423.018c5.4.056,9.392,3.573,11.041,9.565,1.7,6.165-.053,12.715-3.971,15.4-1.512,1.034-3.13.944-4.765.961-2.157.023-4.314-.062-6.472-.078s-4.316,0-6.474,0Z" transform="translate(-5 -2.963)" style="fill:#021e38"/><path d="M212.656,225.654c-2.984.144-5.967.33-8.952.425-8.756.277-14.236-6.714-12.055-15.344,2.357-9.327,5.664-11.818,15.37-11.28,5.787.321,11.592.111,17.359,1.17,5.37.986,8.641,3.968,9.944,9.095,1.228,4.832-1.787,12.843-5.409,15.231-1.359.9-2.834.818-4.3.833-3.983.039-7.967.013-11.951.013Z" transform="translate(-5 -2.963)" style="fill:#021e38"/><path d="M204.346,163.272c.849-8.459,3.783-14.485,7.579-20.191,1.328-1.995,3.053-1.857,4.735-.863,7.711,4.558,16.323,7.1,24.339,10.988,4.194,2.032,5.483,4.843,4.4,9.17-1.284,5.141-2.234,10.378-6.231,14.368-1.692,1.69-3.206,2.4-5.685,1.367-7.931-3.307-15.993-6.3-23.959-9.525C206.555,167.383,203.343,166.135,204.346,163.272Z" transform="translate(-5 -2.963)" style="fill:#021e38"/><path d="M626.739,160.306c.105,4.407-2.014,6.47-4.555,7.673-7.455,3.531-15.065,6.734-22.623,10.048-3.116,1.366-5.432.394-7.147-2.459a54.94,54.94,0,0,1-5.946-13.613c-.856-3.067.017-5.247,2.481-6.853,7.918-5.16,16.67-8.688,25.15-12.75a2.918,2.918,0,0,1,3.63.624A37.694,37.694,0,0,1,626.739,160.306Z" transform="translate(-5 -2.963)" style="fill:#021e38"/><path d="M618.613,282.013c-9.87-2.659-19.8-6.133-28.488-12.493a3.639,3.639,0,0,1-1.626-4.284c.314-1.108.389-2.293.781-3.367,5.605-15.389,5.76-15.48,20.587-9.118,5.275,2.264,10.517,4.629,15.65,7.194,3.144,1.572,4.409,4.082,3.267,7.833a37.692,37.692,0,0,1-5.293,11.664C622.361,280.982,621.117,282.224,618.613,282.013Z" transform="translate(-5 -2.963)" style="fill:#021e38"/><path d="M203.452,264.693c-.122-3.882,1.257-5.973,4.034-7.05,7.976-3.092,15.939-6.22,23.973-9.152,3.891-1.421,6.386.966,8.107,4.009,1.962,3.469,2.9,7.37,3.828,11.229a5.056,5.056,0,0,1-2.692,5.877c-8.171,4.735-16.932,8.238-25.579,11.961-2.956,1.273-5.129-.48-6.739-2.811A31.6,31.6,0,0,1,203.452,264.693Z" transform="translate(-5 -2.963)" style="fill:#021e38"/><path d="M596.7,115.746c-.068,2.917-1.8,4.985-3.8,6.721a95.406,95.406,0,0,1-16.321,11.256c-2.747,1.52-4.7.892-6.536-1.247-1.513-1.758-3.063-3.49-4.486-5.319-7.07-9.086-6.677-13.171,1.992-20.567,3.02-2.577,6.106-5.078,9.2-7.565a5.4,5.4,0,0,1,4.516-1.526C586.589,98.44,596.8,110.428,596.7,115.746Z" transform="translate(-5 -2.963)" style="fill:#021e38"/><path d="M271.683,116.885a34.567,34.567,0,0,1-11.6,17.5c-1.119.936-2.529.2-3.719-.472a80.454,80.454,0,0,1-16.946-12.071c-2.748-2.675-3.413-5.374-.959-8.736,3.5-4.789,5.916-10.407,11.074-13.877,1.407-.947,2.577-1.8,4.473-.714a60.284,60.284,0,0,1,16.566,14.108C271.487,113.722,271.615,115.022,271.683,116.885Z" transform="translate(-5 -2.963)" style="fill:#021e38"/><path d="M581.891,322.632c-4.429-.075-15.394-7.8-16.988-11.9a4.271,4.271,0,0,1,.157-3.826c2.882-5.23,5.728-10.48,8.69-15.664,1.35-2.362,3.314-3.194,5.84-1.586,5.45,3.471,11.219,6.512,15.733,11.271,2.88,3.036,3.777,6.055,1.408,10.255C592.133,319.337,588.256,322.74,581.891,322.632Z" transform="translate(-5 -2.963)" style="fill:#021e38"/><path d="M251.828,323.111a12.356,12.356,0,0,1-8.258-3.975c-11.55-11.69-11.047-17.287,2.536-26.479a20.087,20.087,0,0,1,6.093-3.142c3.336-.887,5.888-.228,7.577,2.857,1.664,3.039,3.407,6.053,4.8,9.215,1.31,2.971,4.69,5.826,1.862,9.428C262.38,316.186,258.387,321.592,251.828,323.111Z" transform="translate(-5 -2.963)" style="fill:#021e38"/><path d="M418.852,289.181c-46.812-1.1-75.158-35.445-74.984-74.832.171-38.752,35-70.8,74.5-70.4,38.662.393,73.4,34.58,71.96,76.494C488.966,260.186,456.764,288.005,418.852,289.181Zm45.445-69.8c.01-28.356-19.57-46.625-49.663-47.183-22.313-.414-43.736,21.842-43.814,46.238-.084,26,20.454,45.985,46.922,46.065C443.42,264.581,464.287,244.357,464.3,219.383Z" transform="translate(-5 -2.963)" style="fill:#fdfdfd"/><path d="M318.817,205.808c-3.851-.583-6.182-.438-8.628-1.642-2.162-1.064-5.273-.848-7.812-.376-7.882,1.466-7.708,1.614-6.121-6.323,3.983-19.92,12.958-37.608,23.957-54.413,2.281-3.484,4.857-3.67,6.647.027,2.89,5.966,7.806,9.512,13.17,12.662,2.884,1.693,3.3,3.032,1.294,6.059-8.186,12.368-15.488,25.238-18.025,40.134C322.623,205.9,320.47,206.2,318.817,205.808Z" transform="translate(-5 -2.963)" style="fill:#02ace8"/><path d="M297.183,229.71c7.207,1.82,14.373.612,21.555-.292,2.876-.362,4.171,1.221,4.589,3.983,1.937,12.783,7.1,24.418,13.321,35.571,1.459,2.614,6.063,3.763,5.034,7.559-.922,3.4-5.6,3.081-7.695,5.441a58.494,58.494,0,0,0-6.726,9.48c-2.134,3.669-3.366,3.825-5.9.149a162.5,162.5,0,0,1-13.7-23.7c-4.815-10.392-9.714-20.821-11.544-32.308-.209-1.311-.322-2.642-.617-3.932C295.159,230.162,295.589,229.44,297.183,229.71Z" transform="translate(-5 -2.963)" style="fill:#02ace8"/><path d="M543.4,206.359c-8.011-1.618-15.456-1.268-22.881-.7-2.539.193-3.751.022-4.109-3.095-1.542-13.408-4.266-26.286-13.484-37.166-5.7-6.724-4.922-7.679,2.328-13.2a23.024,23.024,0,0,0,6.94-8.277c1.616-3.34,3.138-3.471,5.338-.271a183.3,183.3,0,0,1,20.314,37.563A88.181,88.181,0,0,1,543.4,206.359Z" transform="translate(-5 -2.963)" style="fill:#02ace8"/><path d="M542.746,232.078c-2.045,16.318-8.342,31.071-16.363,45.187q-3.569,6.281-7.374,12.426c-2.421,3.913-4.293,4.186-7.24.737-3.336-3.9-6.108-8.3-10.927-10.7-1.789-.892-1.49-2.38-.511-3.8,8.652-12.518,13.4-26.617,16.6-41.315.7-3.231,2.423-4.2,5.578-4,5.614.359,11.222.224,16.663-1.578C541.95,228.118,543.38,229,542.746,232.078Z" transform="translate(-5 -2.963)" style="fill:#02ace8"/><path d="M375.768,325.835c3.624-.026,8.247-4.244,9.717-8.864,2.257-7.088,2.224-6.885,9.323-5.745a85.179,85.179,0,0,0,11.919.587c2.447.044,3.376.578,3.1,3.49-.7,7.427-1.343,14.931,1.127,22.237,1.321,3.9-1,4.281-3.887,3.791-14.446-2.454-28.563-5.967-41.715-12.726a117.146,117.146,0,0,1-22.15-14.262c-2.919-2.453-4.219-4.383-.508-7.455,4.55-3.766,9.346-7.361,11.6-13.343.918-2.438,3.157-3.007,5.59-.753a50.847,50.847,0,0,0,7.952,5.981c3.53,2.165,3.472,4.416.908,7.2a24.187,24.187,0,0,0-6.178,10.553c-.956,3.905,1.486,5.621,4.609,6.929C369.948,324.619,372.7,325.766,375.768,325.835Z" transform="translate(-5 -2.963)" style="fill:#02ace8"/><path d="M433.086,325.949c0-4.13-1.482-9.289.454-12.075,1.645-2.368,7.241-1.952,11.067-2.859,2.885-.684,6.06-2.652,8.51-1.954,2.423.689,1.782,4.9,3.07,7.364,2.341,4.485,5.225,8.273,10.8,8.312,9.555.067,13.126-5.852,9.477-14.786-1.429-3.5-6.253-5.579-5.229-9.566.917-3.568,6.069-3.63,8.293-6.524,2.957-3.846,4.814-4.142,7.129.813,2.732,5.847,7.067,10.657,13.568,12.526,3.2.92,2.076,2.507.949,3.784a30.956,30.956,0,0,1-5.89,5.3c-17.224,11.485-35.264,21.071-56.178,24-6.249.876-7.166.191-6.691-6.373.192-2.652.254-5.313.375-7.97Z" transform="translate(-5 -2.963)" style="fill:#02ace8"/><path d="M467.346,101.875a29.926,29.926,0,0,0-13.385,18.708c-.8,3.125-2.262,3.467-4.934,3.037-4.571-.735-9-2.162-13.688-2.415-3.3-.179-3.534-2.891-3.127-5.577,1.117-7.389-.406-14.944,1.459-22.317.3-1.2.433-1.736,1.613-1.752.165,0,.331.034.5.026C441.984,91.294,461.125,97.39,467.346,101.875Z" transform="translate(-5 -2.963)" style="fill:#02ace8"/><path d="M409.569,93.1c-1.52,8.274-1.136,16.465.03,24.653.274,1.923-.566,2.691-2.459,2.814a73.4,73.4,0,0,0-15.621,3.127c-1.638.474-3.135,1.075-3.528-1.656-.933-6.484-4.361-11.72-8.553-16.621-3.622-4.234-2.937-6.432,2.486-8.08,8.413-2.555,16.891-4.9,25.369-7.23C410.357,89.267,409.225,91.837,409.569,93.1Z" transform="translate(-5 -2.963)" style="fill:#02ace8"/><path d="M362.75,105.952c-2.1,10.293,3.047,17.1,9.266,23.309,1.755,1.754,1.2,2.689-.3,3.884-2.331,1.857-4.557,3.862-7,5.565-6.048,4.223-6.8,4.041-11.385-1.67-3.413-4.253-6.752-8.58-11.506-11.517-2.781-1.718-1.5-4.163.006-5.376C348.171,115.06,354.4,109.737,362.75,105.952Z" transform="translate(-5 -2.963)" style="fill:#02ace8"/><path d="M481.769,140.266a35.561,35.561,0,0,1-12.935-7.175c-1.558-1.355-.881-3.422.2-5.043,3.84-5.751,8.779-10.875,9.771-18.206.25-1.845,1.784-.969,2.731-.418a99.289,99.289,0,0,1,15.636,11.408c1.967,1.732,3.478,3.371-.907,5.259-4.912,2.116-7.337,7.673-11.107,11.49A9.707,9.707,0,0,1,481.769,140.266Z" transform="translate(-5 -2.963)" style="fill:#02ace8"/><path d="M462.9,219.383c-.009,24.974-20.877,45.2-46.555,45.12-26.468-.08-47.005-20.067-46.922-46.065.079-24.4,21.5-46.652,43.814-46.238C443.33,172.758,462.911,191.027,462.9,219.383Z" transform="translate(-5 -2.963)" style="fill:#021e38"/></svg>